# xmcd
# 
# Track frame offsets:
#     150
#     17033
#     34769
#     50990
#     67061
#     86309
#     109431
#     126026
#     144647
# 
# Disc length: 2333
# 
# Revision: 0
# Processed by: cddbd v1.5.2PL0 Copyright (c) Steve Scherf et al.
# Submitted via: fre:ac v1.0.31
# 
DISCID=82091b09
DTITLE=John Mayall - No more interviews
DYEAR=0
DGENRE=Blues
TTITLE0=(It's) Hard Going Up
TTITLE1=A Bigger Slice Of Pie
TTITLE2=Falling
TTITLE3=Take Me Home Tonight
TTITLE4=Sweet Honey Bee
TTITLE5=Stars In The Night
TTITLE6=Consideration
TTITLE7=Gypsy Lady
TTITLE8=Wild new Lover
EXTD=
EXTT0=
EXTT1=
EXTT2=
EXTT3=
EXTT4=
EXTT5=
EXTT6=
EXTT7=
EXTT8=
PLAYORDER=
